<mxfile host="Electron" modified="2024-03-06T16:28:57.867Z" agent="Mozilla/5.0 (Windows NT 10.0; Win64; x64) AppleWebKit/537.36 (KHTML, like Gecko) draw.io/23.1.5 Chrome/120.0.6099.109 Electron/28.1.0 Safari/537.36" etag="YXA-5Jn_b2BLuOb9vad1" version="23.1.5" type="device">
  <diagram name="Pagina-1" id="dZDEA8L5xtdEc1kV0Jhx">
    <mxGraphModel dx="1194" dy="814" grid="1" gridSize="10" guides="1" tooltips="1" connect="1" arrows="1" fold="1" page="1" pageScale="1" pageWidth="827" pageHeight="1169" math="0" shadow="0">
      <root>
        <mxCell id="0" />
        <mxCell id="1" parent="0" />
        <mxCell id="YUF2o0dQoA0OoRzcVEuZ-1" value="" style="rounded=0;whiteSpace=wrap;html=1;strokeColor=none;" vertex="1" parent="1">
          <mxGeometry x="4" y="5" width="820" height="520" as="geometry" />
        </mxCell>
        <mxCell id="YyMks7Wo9ewZVvg8I36D-1" value="" style="rounded=1;whiteSpace=wrap;html=1;" parent="1" vertex="1">
          <mxGeometry x="220" y="190" width="580" height="310" as="geometry" />
        </mxCell>
        <mxCell id="YyMks7Wo9ewZVvg8I36D-5" style="edgeStyle=orthogonalEdgeStyle;rounded=0;orthogonalLoop=1;jettySize=auto;html=1;" parent="1" source="YyMks7Wo9ewZVvg8I36D-2" target="YyMks7Wo9ewZVvg8I36D-4" edge="1">
          <mxGeometry relative="1" as="geometry" />
        </mxCell>
        <mxCell id="YyMks7Wo9ewZVvg8I36D-2" value="" style="shape=datastore;whiteSpace=wrap;html=1;" parent="1" vertex="1">
          <mxGeometry x="40" y="240" width="60" height="60" as="geometry" />
        </mxCell>
        <mxCell id="YyMks7Wo9ewZVvg8I36D-4" value="" style="shape=datastore;whiteSpace=wrap;html=1;" parent="1" vertex="1">
          <mxGeometry x="385" y="240" width="66" height="60" as="geometry" />
        </mxCell>
        <mxCell id="YyMks7Wo9ewZVvg8I36D-6" value="SSH/HTTP" style="text;html=1;align=center;verticalAlign=middle;resizable=0;points=[];autosize=1;strokeColor=none;fillColor=none;" parent="1" vertex="1">
          <mxGeometry x="130" y="240" width="80" height="30" as="geometry" />
        </mxCell>
        <mxCell id="YyMks7Wo9ewZVvg8I36D-7" value="Clone to USS" style="text;html=1;align=center;verticalAlign=middle;resizable=0;points=[];autosize=1;strokeColor=none;fillColor=none;" parent="1" vertex="1">
          <mxGeometry x="120" y="270" width="100" height="30" as="geometry" />
        </mxCell>
        <mxCell id="YyMks7Wo9ewZVvg8I36D-9" value="" style="rounded=0;whiteSpace=wrap;html=1;" parent="1" vertex="1">
          <mxGeometry x="245" y="200" width="85" height="60" as="geometry" />
        </mxCell>
        <mxCell id="YyMks7Wo9ewZVvg8I36D-22" style="edgeStyle=orthogonalEdgeStyle;rounded=0;orthogonalLoop=1;jettySize=auto;html=1;entryX=1;entryY=0.75;entryDx=0;entryDy=0;" parent="1" source="YyMks7Wo9ewZVvg8I36D-8" target="YyMks7Wo9ewZVvg8I36D-11" edge="1">
          <mxGeometry relative="1" as="geometry" />
        </mxCell>
        <mxCell id="YyMks7Wo9ewZVvg8I36D-8" value="Azure Agent" style="text;html=1;align=center;verticalAlign=middle;resizable=0;points=[];autosize=1;strokeColor=none;fillColor=none;" parent="1" vertex="1">
          <mxGeometry x="240" y="215" width="90" height="30" as="geometry" />
        </mxCell>
        <mxCell id="YyMks7Wo9ewZVvg8I36D-10" value="Pipeline orchestrator" style="text;html=1;align=center;verticalAlign=middle;resizable=0;points=[];autosize=1;strokeColor=none;fillColor=none;" parent="1" vertex="1">
          <mxGeometry x="30" y="70" width="130" height="30" as="geometry" />
        </mxCell>
        <mxCell id="YyMks7Wo9ewZVvg8I36D-11" value="" style="rounded=0;whiteSpace=wrap;html=1;" parent="1" vertex="1">
          <mxGeometry x="35" y="90" width="85" height="40" as="geometry" />
        </mxCell>
        <mxCell id="YyMks7Wo9ewZVvg8I36D-18" style="edgeStyle=orthogonalEdgeStyle;rounded=0;orthogonalLoop=1;jettySize=auto;html=1;entryX=0.5;entryY=0;entryDx=0;entryDy=0;" parent="1" source="YyMks7Wo9ewZVvg8I36D-12" target="YyMks7Wo9ewZVvg8I36D-9" edge="1">
          <mxGeometry relative="1" as="geometry" />
        </mxCell>
        <mxCell id="YyMks7Wo9ewZVvg8I36D-12" value="Azure &lt;br&gt;Pipelines" style="text;html=1;align=center;verticalAlign=middle;resizable=0;points=[];autosize=1;strokeColor=none;fillColor=none;" parent="1" vertex="1">
          <mxGeometry x="40" y="90" width="70" height="40" as="geometry" />
        </mxCell>
        <mxCell id="YyMks7Wo9ewZVvg8I36D-14" value="push/merge" style="text;html=1;align=center;verticalAlign=middle;resizable=0;points=[];autosize=1;strokeColor=none;fillColor=none;" parent="1" vertex="1">
          <mxGeometry x="60" y="160" width="90" height="30" as="geometry" />
        </mxCell>
        <mxCell id="YyMks7Wo9ewZVvg8I36D-15" value="Any Git server" style="text;html=1;align=center;verticalAlign=middle;resizable=0;points=[];autosize=1;strokeColor=none;fillColor=none;" parent="1" vertex="1">
          <mxGeometry x="19" y="210" width="100" height="30" as="geometry" />
        </mxCell>
        <mxCell id="YyMks7Wo9ewZVvg8I36D-16" style="edgeStyle=orthogonalEdgeStyle;rounded=0;orthogonalLoop=1;jettySize=auto;html=1;entryX=0.414;entryY=1;entryDx=0;entryDy=0;entryPerimeter=0;" parent="1" source="YyMks7Wo9ewZVvg8I36D-15" target="YyMks7Wo9ewZVvg8I36D-12" edge="1">
          <mxGeometry relative="1" as="geometry" />
        </mxCell>
        <mxCell id="YyMks7Wo9ewZVvg8I36D-17" value="Azure&lt;br&gt;Repos" style="text;html=1;align=center;verticalAlign=middle;resizable=0;points=[];autosize=1;strokeColor=none;fillColor=none;" parent="1" vertex="1">
          <mxGeometry x="40" y="260" width="60" height="40" as="geometry" />
        </mxCell>
        <mxCell id="YyMks7Wo9ewZVvg8I36D-19" value="Start job" style="text;html=1;align=center;verticalAlign=middle;resizable=0;points=[];autosize=1;strokeColor=none;fillColor=none;" parent="1" vertex="1">
          <mxGeometry x="160" y="88" width="70" height="30" as="geometry" />
        </mxCell>
        <mxCell id="YyMks7Wo9ewZVvg8I36D-20" value="PAT/SSH" style="text;html=1;align=center;verticalAlign=middle;resizable=0;points=[];autosize=1;strokeColor=none;fillColor=none;" parent="1" vertex="1">
          <mxGeometry x="280" y="118" width="70" height="30" as="geometry" />
        </mxCell>
        <mxCell id="YyMks7Wo9ewZVvg8I36D-23" value="Logs" style="text;html=1;align=center;verticalAlign=middle;resizable=0;points=[];autosize=1;strokeColor=none;fillColor=none;" parent="1" vertex="1">
          <mxGeometry x="170" y="138" width="50" height="30" as="geometry" />
        </mxCell>
        <mxCell id="YyMks7Wo9ewZVvg8I36D-24" value="" style="fontColor=#0066CC;verticalAlign=top;verticalLabelPosition=bottom;labelPosition=center;align=center;html=1;outlineConnect=0;fillColor=#CCCCCC;strokeColor=#6881B3;gradientColor=none;gradientDirection=north;strokeWidth=2;shape=mxgraph.networks.pc;" parent="1" vertex="1">
          <mxGeometry x="80" y="360" width="100" height="70" as="geometry" />
        </mxCell>
        <mxCell id="YyMks7Wo9ewZVvg8I36D-25" value="App Dev&lt;br&gt;IDz/vscode" style="text;html=1;align=center;verticalAlign=middle;resizable=0;points=[];autosize=1;strokeColor=none;fillColor=none;" parent="1" vertex="1">
          <mxGeometry x="100" y="370" width="80" height="40" as="geometry" />
        </mxCell>
        <mxCell id="YyMks7Wo9ewZVvg8I36D-26" style="edgeStyle=orthogonalEdgeStyle;rounded=0;orthogonalLoop=1;jettySize=auto;html=1;entryX=0.333;entryY=1.25;entryDx=0;entryDy=0;entryPerimeter=0;exitX=0;exitY=0.5;exitDx=0;exitDy=0;exitPerimeter=0;" parent="1" source="YyMks7Wo9ewZVvg8I36D-24" target="YyMks7Wo9ewZVvg8I36D-17" edge="1">
          <mxGeometry relative="1" as="geometry" />
        </mxCell>
        <mxCell id="YyMks7Wo9ewZVvg8I36D-27" value="commit/push" style="text;html=1;align=center;verticalAlign=middle;resizable=0;points=[];autosize=1;strokeColor=none;fillColor=none;" parent="1" vertex="1">
          <mxGeometry x="50" y="320" width="90" height="30" as="geometry" />
        </mxCell>
        <mxCell id="YyMks7Wo9ewZVvg8I36D-28" value="Repository" style="text;html=1;align=center;verticalAlign=middle;resizable=0;points=[];autosize=1;strokeColor=none;fillColor=none;" parent="1" vertex="1">
          <mxGeometry x="378" y="260" width="80" height="30" as="geometry" />
        </mxCell>
        <mxCell id="YyMks7Wo9ewZVvg8I36D-29" value="Rocket Git" style="text;html=1;align=center;verticalAlign=middle;resizable=0;points=[];autosize=1;strokeColor=none;fillColor=none;" parent="1" vertex="1">
          <mxGeometry x="378" y="210" width="80" height="30" as="geometry" />
        </mxCell>
        <mxCell id="YyMks7Wo9ewZVvg8I36D-30" value="" style="rounded=0;whiteSpace=wrap;html=1;" parent="1" vertex="1">
          <mxGeometry x="458" y="250" width="53" height="40" as="geometry" />
        </mxCell>
        <mxCell id="YyMks7Wo9ewZVvg8I36D-31" value="Working&lt;br&gt;tree" style="text;html=1;align=center;verticalAlign=middle;resizable=0;points=[];autosize=1;strokeColor=none;fillColor=none;" parent="1" vertex="1">
          <mxGeometry x="447.5" y="249" width="70" height="40" as="geometry" />
        </mxCell>
        <mxCell id="YyMks7Wo9ewZVvg8I36D-32" value="" style="rounded=0;whiteSpace=wrap;html=1;" parent="1" vertex="1">
          <mxGeometry x="517.5" y="200" width="133.5" height="60" as="geometry" />
        </mxCell>
        <mxCell id="YyMks7Wo9ewZVvg8I36D-34" value="" style="rounded=0;whiteSpace=wrap;html=1;" parent="1" vertex="1">
          <mxGeometry x="517.5" y="300" width="133.5" height="150" as="geometry" />
        </mxCell>
        <mxCell id="YyMks7Wo9ewZVvg8I36D-35" value="" style="rounded=0;whiteSpace=wrap;html=1;" parent="1" vertex="1">
          <mxGeometry x="534.25" y="249" width="100" height="60" as="geometry" />
        </mxCell>
        <mxCell id="YyMks7Wo9ewZVvg8I36D-51" style="edgeStyle=orthogonalEdgeStyle;rounded=0;orthogonalLoop=1;jettySize=auto;html=1;entryX=0.5;entryY=1;entryDx=0;entryDy=0;" parent="1" source="YyMks7Wo9ewZVvg8I36D-36" target="YyMks7Wo9ewZVvg8I36D-49" edge="1">
          <mxGeometry relative="1" as="geometry" />
        </mxCell>
        <mxCell id="YyMks7Wo9ewZVvg8I36D-36" value="DBB Toolkit" style="text;html=1;align=center;verticalAlign=middle;resizable=0;points=[];autosize=1;strokeColor=none;fillColor=none;" parent="1" vertex="1">
          <mxGeometry x="539.25" y="210" width="90" height="30" as="geometry" />
        </mxCell>
        <mxCell id="YyMks7Wo9ewZVvg8I36D-37" value="z/OS build API&#39;s" style="text;html=1;align=center;verticalAlign=middle;resizable=0;points=[];autosize=1;strokeColor=none;fillColor=none;" parent="1" vertex="1">
          <mxGeometry x="529.25" y="265" width="110" height="30" as="geometry" />
        </mxCell>
        <mxCell id="YyMks7Wo9ewZVvg8I36D-38" value="Groovy build scripts&lt;br&gt;&lt;br&gt;scan, impact analysis,&lt;br&gt;copy to PDS, compile,&lt;br&gt;create artifacts &amp;amp; report" style="text;html=1;align=center;verticalAlign=middle;resizable=0;points=[];autosize=1;strokeColor=none;fillColor=none;" parent="1" vertex="1">
          <mxGeometry x="509.25" y="330" width="150" height="90" as="geometry" />
        </mxCell>
        <mxCell id="YyMks7Wo9ewZVvg8I36D-40" value="DBB user build" style="text;html=1;align=center;verticalAlign=middle;resizable=0;points=[];autosize=1;strokeColor=none;fillColor=none;" parent="1" vertex="1">
          <mxGeometry x="278" y="467" width="100" height="30" as="geometry" />
        </mxCell>
        <mxCell id="YyMks7Wo9ewZVvg8I36D-41" value="" style="endArrow=classic;startArrow=classic;html=1;rounded=0;exitX=0.5;exitY=1;exitDx=0;exitDy=0;" parent="1" source="YyMks7Wo9ewZVvg8I36D-34" edge="1">
          <mxGeometry width="50" height="50" relative="1" as="geometry">
            <mxPoint x="90" y="480" as="sourcePoint" />
            <mxPoint x="140" y="430" as="targetPoint" />
            <Array as="points">
              <mxPoint x="584" y="470" />
              <mxPoint x="140" y="470" />
            </Array>
          </mxGeometry>
        </mxCell>
        <mxCell id="YyMks7Wo9ewZVvg8I36D-42" value="" style="rounded=0;whiteSpace=wrap;html=1;" parent="1" vertex="1">
          <mxGeometry x="700" y="200" width="70" height="250" as="geometry" />
        </mxCell>
        <mxCell id="YyMks7Wo9ewZVvg8I36D-3" value="" style="shape=datastore;whiteSpace=wrap;html=1;" parent="1" vertex="1">
          <mxGeometry x="705" y="225" width="60" height="60" as="geometry" />
        </mxCell>
        <mxCell id="YyMks7Wo9ewZVvg8I36D-43" value="PDS" style="text;html=1;align=center;verticalAlign=middle;resizable=0;points=[];autosize=1;strokeColor=none;fillColor=none;" parent="1" vertex="1">
          <mxGeometry x="710" y="250" width="50" height="30" as="geometry" />
        </mxCell>
        <mxCell id="YyMks7Wo9ewZVvg8I36D-44" value="Compile&lt;br&gt;&amp;amp;&lt;br&gt;Link" style="text;html=1;align=center;verticalAlign=middle;resizable=0;points=[];autosize=1;strokeColor=none;fillColor=none;" parent="1" vertex="1">
          <mxGeometry x="700" y="315" width="70" height="60" as="geometry" />
        </mxCell>
        <mxCell id="YyMks7Wo9ewZVvg8I36D-45" value="MVS" style="text;html=1;align=center;verticalAlign=middle;resizable=0;points=[];autosize=1;strokeColor=none;fillColor=none;" parent="1" vertex="1">
          <mxGeometry x="710" y="460" width="50" height="30" as="geometry" />
        </mxCell>
        <mxCell id="YyMks7Wo9ewZVvg8I36D-46" value="" style="endArrow=none;dashed=1;html=1;rounded=0;exitX=0.776;exitY=0;exitDx=0;exitDy=0;exitPerimeter=0;" parent="1" edge="1">
          <mxGeometry width="50" height="50" relative="1" as="geometry">
            <mxPoint x="680.0799999999999" y="480" as="sourcePoint" />
            <mxPoint x="680" y="300" as="targetPoint" />
          </mxGeometry>
        </mxCell>
        <mxCell id="YyMks7Wo9ewZVvg8I36D-47" value="" style="endArrow=none;dashed=1;html=1;rounded=0;exitX=0.776;exitY=0;exitDx=0;exitDy=0;exitPerimeter=0;" parent="1" edge="1">
          <mxGeometry width="50" height="50" relative="1" as="geometry">
            <mxPoint x="680" y="308" as="sourcePoint" />
            <mxPoint x="680" y="208" as="targetPoint" />
          </mxGeometry>
        </mxCell>
        <mxCell id="YyMks7Wo9ewZVvg8I36D-48" value="USS" style="text;html=1;align=center;verticalAlign=middle;resizable=0;points=[];autosize=1;strokeColor=none;fillColor=none;" parent="1" vertex="1">
          <mxGeometry x="601" y="460" width="50" height="30" as="geometry" />
        </mxCell>
        <mxCell id="YyMks7Wo9ewZVvg8I36D-49" value="" style="rounded=1;whiteSpace=wrap;html=1;" parent="1" vertex="1">
          <mxGeometry x="494.25" y="48" width="180" height="90" as="geometry" />
        </mxCell>
        <mxCell id="YyMks7Wo9ewZVvg8I36D-50" value="DBB WebApp&lt;br&gt;&lt;br&gt;-Dependency metadata&lt;br&gt;-Build result history" style="text;html=1;align=center;verticalAlign=middle;resizable=0;points=[];autosize=1;strokeColor=none;fillColor=none;" parent="1" vertex="1">
          <mxGeometry x="509.25" y="58" width="150" height="70" as="geometry" />
        </mxCell>
        <mxCell id="YyMks7Wo9ewZVvg8I36D-52" value="HTTPS" style="text;html=1;align=center;verticalAlign=middle;resizable=0;points=[];autosize=1;strokeColor=none;fillColor=none;" parent="1" vertex="1">
          <mxGeometry x="579.25" y="148" width="60" height="30" as="geometry" />
        </mxCell>
        <mxCell id="YyMks7Wo9ewZVvg8I36D-54" value="" style="endArrow=classic;startArrow=classic;html=1;rounded=0;" parent="1" edge="1">
          <mxGeometry width="50" height="50" relative="1" as="geometry">
            <mxPoint x="657" y="400" as="sourcePoint" />
            <mxPoint x="697" y="400" as="targetPoint" />
          </mxGeometry>
        </mxCell>
        <mxCell id="YyMks7Wo9ewZVvg8I36D-55" value="" style="endArrow=classic;startArrow=classic;html=1;rounded=0;entryX=0.5;entryY=1;entryDx=0;entryDy=0;" parent="1" source="YyMks7Wo9ewZVvg8I36D-38" target="YyMks7Wo9ewZVvg8I36D-9" edge="1">
          <mxGeometry width="50" height="50" relative="1" as="geometry">
            <mxPoint x="310" y="400" as="sourcePoint" />
            <mxPoint x="360" y="350" as="targetPoint" />
            <Array as="points">
              <mxPoint x="290" y="375" />
            </Array>
          </mxGeometry>
        </mxCell>
        <mxCell id="YyMks7Wo9ewZVvg8I36D-56" value="Run Groovy build scripts" style="text;html=1;align=center;verticalAlign=middle;resizable=0;points=[];autosize=1;strokeColor=none;fillColor=none;" parent="1" vertex="1">
          <mxGeometry x="290" y="350" width="150" height="30" as="geometry" />
        </mxCell>
        <mxCell id="YyMks7Wo9ewZVvg8I36D-57" value="Return status and logs" style="text;html=1;align=center;verticalAlign=middle;resizable=0;points=[];autosize=1;strokeColor=none;fillColor=none;" parent="1" vertex="1">
          <mxGeometry x="354.25" y="370" width="140" height="30" as="geometry" />
        </mxCell>
        <mxCell id="YyMks7Wo9ewZVvg8I36D-58" value="Linux/zLinux" style="text;html=1;align=center;verticalAlign=middle;resizable=0;points=[];autosize=1;strokeColor=none;fillColor=none;" parent="1" vertex="1">
          <mxGeometry x="539.25" y="18" width="90" height="30" as="geometry" />
        </mxCell>
      </root>
    </mxGraphModel>
  </diagram>
</mxfile>
